PathFileType	4	(X/Y/Z)	SUBJ89_2_walk_RCNL2025.trc
DataRate	CameraRate	NumFrames	NumMarkers	Units	OrigDataRate	OrigDataStartFrame	OrigNumFrames
100	100	11	25	mm	100	138	274
Frame#	Time	R_Shoulder			L_Shoulder			C7			J_Notch			R_Elbow			L_Elbow			R_Wrist			L_Wrist			R_Asis			L_Asis			Sacral			Thoracic			Sternum			R_Thigh_Lateral			R_Knee_Lateral			R_Shank_Lateral			R_Ankle_Lateral			R_Heel			R_Toe			L_Thigh_Lateral			L_Knee_Lateral			L_Shank_Lateral			L_Ankle_Lateral			L_Heel			L_Toe		
		X1	Y1	Z1	X2	Y2	Z2	X3	Y3	Z3	X4	Y4	Z4	X5	Y5	Z5	X6	Y6	Z6	X7	Y7	Z7	X8	Y8	Z8	X9	Y9	Z9	X10	Y10	Z10	X11	Y11	Z11	X12	Y12	Z12	X13	Y13	Z13	X14	Y14	Z14	X15	Y15	Z15	X16	Y16	Z16	X17	Y17	Z17	X18	Y18	Z18	X19	Y19	Z19	X20	Y20	Z20	X21	Y21	Z21	X22	Y22	Z22	X23	Y23	Z23	X24	Y24	Z24	X25	Y25	Z25
138	1.37000000	890.486084	1421.084839	-23.737097	879.974731	1429.435791	-438.226440	820.034363	1516.543457	-230.187088	935.175232	1388.860840	-229.908554	759.894897	1108.285034	19.102755	858.421021	1088.766846	-490.547882	819.828033	842.867767	21.009029	982.901001	851.371521	-470.873947	912.116150	995.628967	-111.169594	920.174133	994.852112	-348.297272	749.380188	1053.605469	-221.222122	731.137695	1337.834595	-229.869659	965.536499	1241.665161	-239.558304	979.377441	630.248962	-40.027325	1005.088135	519.417603	-93.574608	908.789429	319.127655	-56.425522	822.158997	131.330658	-132.468719	788.549316	134.563522	-181.549515	952.365601	52.083893	-144.350021	868.423096	562.455200	-417.915192	852.643738	479.855347	-339.324341	792.272522	253.086014	-379.338928	749.503052	62.331566	-306.653961	708.525024	71.691795	-261.056976	902.778503	31.728071	-288.020721
139	1.38000000	904.039978	1419.610474	-23.188799	893.419678	1428.871948	-437.505493	833.532471	1515.528198	-229.416107	948.596436	1387.789062	-229.465714	771.007996	1107.793091	19.395666	876.982117	1088.414917	-492.217896	830.063721	842.126251	21.634671	1008.078705	854.804169	-467.615005	925.730347	994.625671	-111.341705	933.177795	993.487915	-348.539124	762.732605	1052.668457	-220.961166	744.565552	1336.913940	-229.360352	978.816406	1240.505859	-239.530518	996.555847	631.379883	-39.825821	1023.336365	520.152222	-93.087379	938.017456	314.238251	-55.439396	863.571655	121.464371	-131.072510	829.857910	122.391716	-180.315201	998.569580	50.751854	-142.850693	874.817322	561.539062	-418.077209	857.375305	478.932373	-339.514038	794.437988	252.718750	-379.442810	749.750488	62.447418	-306.569061	708.898193	72.035049	-260.994293	902.849487	31.682318	-288.106964
140	1.39000000	917.627930	1417.802124	-22.609127	906.822205	1427.947510	-436.763275	847.072754	1514.204102	-228.607925	962.048157	1386.387573	-229.001312	782.393433	1106.905396	19.741661	895.566284	1087.810547	-493.748901	840.611816	841.000366	22.271728	1033.003723	858.207855	-464.321701	939.350098	993.222107	-111.445953	946.260315	991.875854	-348.715942	776.113770	1051.424927	-220.670990	758.022400	1335.709717	-228.755386	992.121826	1239.018433	-239.459320	1012.910278	631.848816	-39.624874	1040.737305	520.248230	-92.566750	967.041016	309.372101	-54.322701	905.632385	112.224960	-129.496918	871.849121	110.854355	-178.821915	1044.864502	50.359692	-141.364578	881.574951	560.476379	-418.155823	862.416992	477.928772	-339.660492	796.750000	252.314056	-379.536621	750.030212	62.579838	-306.446564	709.300110	72.408615	-260.890381	902.935913	31.629862	-288.201843
141	1.40000000	931.252930	1415.691284	-21.999304	920.188538	1426.694824	-436.001709	860.657288	1512.589111	-227.763428	975.536499	1384.680054	-228.514679	794.062622	1105.643188	20.134045	914.166687	1086.978027	-495.103882	851.450439	839.507690	22.937257	1057.628052	861.556091	-460.996704	952.996948	991.447266	-111.495911	959.428894	990.050720	-348.827545	789.531555	1049.886719	-220.341080	771.511047	1334.240723	-228.059357	1005.457642	1237.232422	-239.341080	1028.350708	631.583679	-39.396091	1057.312256	519.715637	-92.035118	995.859863	304.650909	-53.081627	948.181091	103.839043	-127.732521	914.379639	100.192841	-177.052109	1091.059082	51.044788	-139.961792	888.662170	559.266479	-418.151001	867.754700	476.852692	-339.750397	799.219910	251.882812	-379.595917	750.342285	62.743477	-306.250946	709.748169	72.829231	-260.714081	903.036011	31.569254	-288.297241
142	1.41000000	944.919312	1413.308960	-21.358284	933.530090	1425.149292	-435.220734	874.287537	1510.706665	-226.880875	989.066040	1382.692749	-228.003479	806.018921	1104.029175	20.561640	932.770508	1085.941895	-496.250824	862.561737	837.670227	23.644244	1081.895264	864.817200	-457.626541	966.699280	989.333801	-111.502930	972.690002	988.043274	-348.878784	802.995850	1048.067383	-219.959671	785.033508	1332.529907	-227.280869	1018.830017	1235.177979	-239.172394	1042.793823	630.524170	-39.107338	1073.106689	518.586853	-91.522827	1024.449585	300.207397	-51.734764	990.984070	96.514511	-125.783783	957.239685	90.627251	-175.007248	1136.919434	52.916412	-138.674713	896.027954	557.917114	-418.066498	873.359375	475.719177	-339.772156	801.836304	251.446518	-379.589935	750.683105	62.957386	-305.937744	710.255920	73.319328	-260.411957	903.145081	31.498001	-288.379303
143	1.42000000	958.632080	1410.685547	-20.683081	946.864075	1423.347900	-434.418030	887.965759	1508.584961	-225.957855	1002.639343	1380.455078	-227.463669	818.261353	1102.087280	21.013081	951.357422	1084.726318	-497.163483	873.933411	835.513306	24.398708	1105.755127	867.958618	-454.200775	980.487610	986.919495	-111.473732	986.043030	985.879883	-348.882080	816.519043	1045.982788	-219.517090	798.593079	1330.604004	-226.430450	1032.246216	1232.885986	-238.949295	1056.189575	628.636108	-38.727062	1088.191650	516.915283	-91.064651	1052.748413	296.169495	-50.317856	1033.732544	90.421577	-123.669167	1000.147888	82.335884	-172.720673	1182.155518	56.036930	-137.493088	903.607056	556.447205	-417.911469	879.189880	474.548187	-339.717560	804.561279	251.038010	-379.484039	751.044800	63.244690	-305.457916	710.826355	73.907936	-259.908417	903.254883	31.412737	-288.427673
144	1.43000000	972.397217	1407.851562	-19.970011	960.212524	1421.327026	-433.589783	901.694275	1506.257080	-224.991959	1016.258789	1378.000488	-226.888779	830.786743	1099.843384	21.480068	969.898865	1083.353027	-497.821686	885.560272	833.065002	25.200420	1129.179688	870.951935	-450.733032	994.387634	984.246704	-111.409599	999.479431	983.584106	-348.855743	830.115906	1043.653687	-219.008835	812.195679	1328.491333	-225.517120	1045.713135	1230.390015	-238.666748	1068.552490	625.923462	-38.229752	1102.660889	514.771729	-90.692886	1080.648804	292.634735	-48.884327	1076.047852	85.670433	-121.424225	1042.748047	75.435234	-170.262512	1226.413208	60.397800	-136.371155	911.324890	554.889038	-417.700989	885.200439	473.363037	-339.581848	807.333801	250.698105	-379.240814	751.417114	63.632259	-304.764618	711.454956	74.630669	-259.122955	903.354492	31.311056	-288.418457
145	1.44000000	986.220581	1404.839722	-19.214905	973.601196	1419.121704	-432.730499	915.473511	1503.759399	-223.979309	1029.926880	1375.367065	-226.269318	843.591003	1097.325562	21.958151	988.360840	1081.841309	-498.212402	897.445587	830.356201	26.045465	1152.161377	873.774384	-447.259552	1008.415283	981.360962	-111.308418	1012.994507	981.182434	-348.815521	843.802246	1041.107788	-218.436462	825.849365	1326.220215	-224.548264	1059.236084	1227.726685	-238.318970	1079.991211	622.437012	-37.601532	1116.624390	512.239380	-90.429039	1107.982056	289.643677	-47.492630	1117.486694	82.287209	-119.112160	1084.610352	69.963036	-167.738647	1269.278320	65.896530	-135.238419	919.108215	553.287842	-417.454437	891.352539	472.188263	-339.363312	810.084473	250.470093	-378.824921	751.792053	64.150604	-303.823395	712.143311	75.525810	-258.002106	903.433411	31.195068	-288.330872
146	1.45000000	1000.105042	1401.686157	-18.412443	987.058105	1416.765991	-431.831024	929.301758	1501.130005	-222.913040	1043.646362	1372.595947	-225.592972	856.670593	1094.563477	22.446161	1006.706848	1080.207520	-498.330078	909.600281	827.420349	26.928890	1174.697449	876.405914	-443.819946	1022.577393	978.309509	-111.168106	1026.596802	978.706482	-348.766663	857.593323	1038.383179	-217.806244	839.562866	1323.818848	-223.532364	1072.822754	1224.936401	-237.899292	1090.722290	618.279114	-36.845482	1130.200195	509.408112	-90.276199	1134.507935	287.167297	-46.194580	1157.548218	80.192879	-116.833603	1125.243652	65.866707	-165.290253	1310.297485	72.318733	-134.011963	926.901001	551.695190	-417.190704	897.631165	471.045502	-339.064392	812.761597	250.396317	-378.215057	752.168213	64.833679	-302.627563	712.905945	76.629280	-256.546692	903.486023	31.073692	-288.154816
147	1.46000000	1014.046997	1398.430298	-17.555365	1000.611572	1414.295044	-430.877258	943.177246	1498.407471	-221.784241	1057.421143	1369.731445	-224.845276	870.023071	1091.589722	22.945892	1024.900269	1078.466675	-498.172913	922.040710	824.292847	27.847199	1196.780762	878.826752	-440.444321	1036.874634	975.140076	-110.987602	1040.302734	976.188538	-348.705902	871.503967	1035.527100	-217.126266	853.344727	1321.315063	-222.479462	1086.486938	1222.063232	-237.399521	1101.060913	613.608643	-35.985626	1143.509155	506.370850	-90.215042	1159.935547	285.111694	-45.041370	1195.692871	79.195221	-114.725922	1164.117188	63.001766	-163.091995	1349.004761	79.327477	-132.615417	934.681763	550.156677	-416.923370	904.060120	469.948456	-338.694550	815.359436	250.514328	-377.419708	752.553406	65.717140	-301.215820	713.760132	77.973763	-254.820450	903.513977	30.960991	-287.896484
148	1.47000000	1028.036499	1395.112427	-16.633974	1014.288879	1411.747070	-429.851929	957.100830	1495.631348	-220.585388	1071.258789	1366.820679	-224.011230	883.645447	1088.439575	23.461399	1042.905029	1076.633179	-497.738342	934.785461	821.011047	28.798422	1218.399048	881.017914	-437.152344	1051.304199	971.901367	-110.765434	1054.125488	973.654724	-348.628693	885.548645	1032.594238	-216.403839	867.204773	1318.739136	-221.399872	1100.248535	1219.155884	-236.809982	1111.388794	608.645203	-35.068577	1156.674438	503.222321	-90.207245	1183.962280	283.332611	-44.093693	1231.369995	79.000778	-112.949524	1200.684326	61.141598	-161.338623	1384.946045	86.467682	-131.003479	942.478882	548.700500	-416.659698	910.708740	468.898651	-338.271362	817.935791	250.849472	-376.487915	752.966675	66.834770	-299.682800	714.713806	79.590942	-252.948425	903.526367	30.870832	-287.582336
